<svg width="16" height="16" viewBox="0 0 16 16" fill="none" xmlns="http://www.w3.org/2000/svg">
<path d="M6.445 12.438V7.104H5.812C5.35864 7.34567 4.92049 7.61484 4.5 7.91V8.605C4.875 8.348 5.469 7.985 5.758 7.828H5.77V12.438H6.445ZM7.633 11.133C7.68 11.773 8.227 12.539 9.336 12.539C10.594 12.539 11.336 11.473 11.336 9.668C11.336 7.734 10.555 7 9.383 7C8.457 7 7.586 7.672 7.586 8.809C7.586 9.969 8.41 10.579 9.262 10.579C10.008 10.579 10.492 10.203 10.645 9.789H10.672C10.668 11.105 10.211 11.953 9.367 11.953C8.703 11.953 8.359 11.503 8.317 11.133H7.633ZM10.586 8.816C10.586 9.512 10.027 9.996 9.402 9.996C8.801 9.996 8.258 9.613 8.258 8.796C8.258 7.973 8.84 7.586 9.426 7.586C10.059 7.586 10.586 7.984 10.586 8.816Z" fill="#424242"/>
<path fill-rule="evenodd" clip-rule="evenodd" d="M14 2H2C1.73478 2 1.48043 2.10536 1.29289 2.29289C1.10536 2.48043 1 2.73478 1 3V14C1 14.2652 1.10536 14.5196 1.29289 14.7071C1.48043 14.8946 1.73478 15 2 15H14C14.2652 15 14.5196 14.8946 14.7071 14.7071C14.8946 14.5196 15 14.2652 15 14V3C15 2.73478 14.8946 2.48043 14.7071 2.29289C14.5196 2.10536 14.2652 2 14 2ZM2 1C1.46957 1 0.960859 1.21071 0.585786 1.58579C0.210714 1.96086 0 2.46957 0 3L0 14C0 14.5304 0.210714 15.0391 0.585786 15.4142C0.960859 15.7893 1.46957 16 2 16H14C14.5304 16 15.0391 15.7893 15.4142 15.4142C15.7893 15.0391 16 14.5304 16 14V3C16 2.46957 15.7893 1.96086 15.4142 1.58579C15.0391 1.21071 14.5304 1 14 1H2Z" fill="#424242"/>
<path fill-rule="evenodd" clip-rule="evenodd" d="M3.5 0C3.63261 0 3.75979 0.0526784 3.85355 0.146447C3.94732 0.240215 4 0.367392 4 0.5V1C4 1.13261 3.94732 1.25979 3.85355 1.35355C3.75979 1.44732 3.63261 1.5 3.5 1.5C3.36739 1.5 3.24021 1.44732 3.14645 1.35355C3.05268 1.25979 3 1.13261 3 1V0.5C3 0.367392 3.05268 0.240215 3.14645 0.146447C3.24021 0.0526784 3.36739 0 3.5 0V0ZM12.5 0C12.6326 0 12.7598 0.0526784 12.8536 0.146447C12.9473 0.240215 13 0.367392 13 0.5V1C13 1.13261 12.9473 1.25979 12.8536 1.35355C12.7598 1.44732 12.6326 1.5 12.5 1.5C12.3674 1.5 12.2402 1.44732 12.1464 1.35355C12.0527 1.25979 12 1.13261 12 1V0.5C12 0.367392 12.0527 0.240215 12.1464 0.146447C12.2402 0.0526784 12.3674 0 12.5 0V0Z" fill="#424242"/>
<path d="M2.5 4C2.5 3.86739 2.55268 3.74021 2.64645 3.64645C2.74021 3.55268 2.86739 3.5 3 3.5H13C13.1326 3.5 13.2598 3.55268 13.3536 3.64645C13.4473 3.74021 13.5 3.86739 13.5 4V5C13.5 5.13261 13.4473 5.25979 13.3536 5.35355C13.2598 5.44732 13.1326 5.5 13 5.5H3C2.86739 5.5 2.74021 5.44732 2.64645 5.35355C2.55268 5.25979 2.5 5.13261 2.5 5V4Z" fill="#424242"/>
</svg>
