<svg width="25" height="25" viewBox="0 0 25 25" fill="none" xmlns="http://www.w3.org/2000/svg">
<path d="M15.2344 17.2437H13.4253V11.3281C13.4253 11.2207 13.3374 11.1328 13.23 11.1328H11.7651C11.6577 11.1328 11.5698 11.2207 11.5698 11.3281V17.2437H9.76562C9.60205 17.2437 9.51172 17.4316 9.61181 17.5586L12.3462 21.0181C12.3645 21.0414 12.3878 21.0603 12.4145 21.0733C12.4411 21.0863 12.4704 21.093 12.5 21.093C12.5296 21.093 12.5589 21.0863 12.5855 21.0733C12.6122 21.0603 12.6355 21.0414 12.6538 21.0181L15.3882 17.5586C15.4883 17.4316 15.3979 17.2437 15.2344 17.2437Z" fill="#424242"/>
<path d="M19.8096 8.95264C18.6914 6.00342 15.8423 3.90625 12.5049 3.90625C9.16748 3.90625 6.31836 6.00098 5.2002 8.9502C3.10791 9.49951 1.5625 11.4062 1.5625 13.6719C1.5625 16.3696 3.74756 18.5547 6.44287 18.5547H7.42188C7.5293 18.5547 7.61719 18.4668 7.61719 18.3594V16.8945C7.61719 16.7871 7.5293 16.6992 7.42188 16.6992H6.44287C5.62012 16.6992 4.84619 16.3721 4.27002 15.7788C3.69629 15.188 3.39111 14.3921 3.41797 13.5669C3.43994 12.9224 3.65967 12.3169 4.05762 11.8066C4.46533 11.2866 5.03662 10.9082 5.67139 10.7397L6.59668 10.498L6.93604 9.60449C7.146 9.04785 7.43896 8.52783 7.80762 8.05664C8.17156 7.58962 8.60267 7.17908 9.08691 6.83838C10.0903 6.13281 11.272 5.75928 12.5049 5.75928C13.7378 5.75928 14.9194 6.13281 15.9229 6.83838C16.4087 7.18018 16.8384 7.59033 17.2021 8.05664C17.5708 8.52783 17.8638 9.05029 18.0737 9.60449L18.4106 10.4956L19.3335 10.7397C20.6567 11.0962 21.582 12.2998 21.582 13.6719C21.582 14.48 21.2671 15.2417 20.6958 15.813C20.4156 16.0948 20.0823 16.3182 19.7152 16.4703C19.3481 16.6225 18.9545 16.7003 18.5571 16.6992H17.5781C17.4707 16.6992 17.3828 16.7871 17.3828 16.8945V18.3594C17.3828 18.4668 17.4707 18.5547 17.5781 18.5547H18.5571C21.2524 18.5547 23.4375 16.3696 23.4375 13.6719C23.4375 11.4087 21.897 9.5044 19.8096 8.95264Z" fill="#424242"/>
</svg>
