<svg width="34" height="30" viewBox="0 0 34 30" fill="none" xmlns="http://www.w3.org/2000/svg">
<path d="M28.2803 9H23.8945V8.12988L25.9644 5.92383C26.2485 5.61328 26.458 5.34229 26.5928 5.11084C26.7305 4.87939 26.7993 4.65967 26.7993 4.45166C26.7993 4.16748 26.7275 3.94482 26.584 3.78369C26.4404 3.61963 26.2354 3.5376 25.9688 3.5376C25.6816 3.5376 25.4546 3.63721 25.2876 3.83643C25.1235 4.03271 25.0415 4.29199 25.0415 4.61426H23.7671C23.7671 4.22461 23.8594 3.86865 24.0439 3.54639C24.2314 3.22412 24.4951 2.97217 24.835 2.79053C25.1748 2.60596 25.5601 2.51367 25.9907 2.51367C26.6499 2.51367 27.1611 2.67188 27.5244 2.98828C27.8906 3.30469 28.0737 3.75146 28.0737 4.32861C28.0737 4.64502 27.9917 4.96729 27.8276 5.29541C27.6636 5.62354 27.3823 6.00586 26.9839 6.44238L25.5293 7.97607H28.2803V9ZM31.6772 5.41846H33.2637V6.56543H31.6772V8.3584H30.4688V6.56543H28.8779V5.41846H30.4688V3.7002H31.6772V5.41846Z" fill="white"/>
<path fill-rule="evenodd" clip-rule="evenodd" d="M23.4375 26.875C23.4375 26.875 25 26.875 25 25.3125C25 23.75 23.4375 19.0625 17.1875 19.0625C10.9375 19.0625 9.375 23.75 9.375 25.3125C9.375 26.875 10.9375 26.875 10.9375 26.875H23.4375ZM10.9453 25.4V25.3969V25.4ZM10.9719 25.3125H23.4031C23.4104 25.3116 23.4177 25.3106 23.425 25.3094L23.4375 25.3062C23.4344 24.8938 23.1766 23.6969 22.25 22.6187C21.3875 21.6078 19.8719 20.625 17.1875 20.625C14.5047 20.625 12.9891 21.6094 12.125 22.6187C11.1984 23.6969 10.9391 24.8953 10.9375 25.3062C10.9489 25.3085 10.9604 25.3105 10.9719 25.3125ZM23.4297 25.4V25.3969V25.4ZM17.1875 15.9375C18.0163 15.9375 18.8112 15.6083 19.3972 15.0222C19.9833 14.4362 20.3125 13.6413 20.3125 12.8125C20.3125 11.9837 19.9833 11.1888 19.3972 10.6028C18.8112 10.0167 18.0163 9.6875 17.1875 9.6875C16.3587 9.6875 15.5638 10.0167 14.9778 10.6028C14.3917 11.1888 14.0625 11.9837 14.0625 12.8125C14.0625 13.6413 14.3917 14.4362 14.9778 15.0222C15.5638 15.6083 16.3587 15.9375 17.1875 15.9375ZM21.875 12.8125C21.875 13.4281 21.7538 14.0376 21.5182 14.6063C21.2826 15.175 20.9373 15.6918 20.5021 16.1271C20.0668 16.5623 19.55 16.9076 18.9813 17.1432C18.4126 17.3788 17.8031 17.5 17.1875 17.5C16.5719 17.5 15.9624 17.3788 15.3937 17.1432C14.825 16.9076 14.3082 16.5623 13.8729 16.1271C13.4377 15.6918 13.0924 15.175 12.8568 14.6063C12.6212 14.0376 12.5 13.4281 12.5 12.8125C12.5 11.5693 12.9939 10.377 13.8729 9.49794C14.752 8.61886 15.9443 8.125 17.1875 8.125C18.4307 8.125 19.623 8.61886 20.5021 9.49794C21.3811 10.377 21.875 11.5693 21.875 12.8125ZM10.8375 19.5C10.2125 19.3032 9.56818 19.1738 8.91562 19.1141C8.54896 19.0792 8.18082 19.062 7.8125 19.0625C1.5625 19.0625 0 23.75 0 25.3125C0 26.3547 0.520312 26.875 1.5625 26.875H8.15C7.91837 26.3872 7.80285 25.8524 7.8125 25.3125C7.8125 23.7344 8.40156 22.1219 9.51562 20.775C9.89531 20.3156 10.3375 19.8859 10.8375 19.5ZM7.6875 20.625C5.08125 20.6562 3.60156 21.625 2.75 22.6187C1.81719 23.7031 1.5625 24.9047 1.5625 25.3125H6.25C6.25 23.6797 6.75469 22.0531 7.6875 20.625ZM2.34375 13.5938C2.34375 12.3505 2.83761 11.1583 3.71669 10.2792C4.59576 9.40011 5.78805 8.90625 7.03125 8.90625C8.27445 8.90625 9.46674 9.40011 10.3458 10.2792C11.2249 11.1583 11.7188 12.3505 11.7188 13.5938C11.7188 14.837 11.2249 16.0292 10.3458 16.9083C9.46674 17.7874 8.27445 18.2812 7.03125 18.2812C5.78805 18.2812 4.59576 17.7874 3.71669 16.9083C2.83761 16.0292 2.34375 14.837 2.34375 13.5938ZM7.03125 10.4688C6.20245 10.4688 5.40759 10.798 4.82154 11.384C4.23549 11.9701 3.90625 12.7649 3.90625 13.5938C3.90625 14.4226 4.23549 15.2174 4.82154 15.8035C5.40759 16.3895 6.20245 16.7188 7.03125 16.7188C7.86005 16.7188 8.65491 16.3895 9.24096 15.8035C9.82701 15.2174 10.1562 14.4226 10.1562 13.5938C10.1562 12.7649 9.82701 11.9701 9.24096 11.384C8.65491 10.798 7.86005 10.4688 7.03125 10.4688Z" fill="white"/>
</svg>
