<svg width="25" height="25" viewBox="0 0 25 25" fill="none" xmlns="http://www.w3.org/2000/svg">
<path d="M14.445 5.82188C14.4451 6.07738 14.3948 6.3304 14.2971 6.56648C14.1994 6.80257 14.0562 7.0171 13.8756 7.19782C13.695 7.37855 13.4805 7.52193 13.2445 7.61979C13.0085 7.71764 12.7555 7.76804 12.5 7.76813C12.2445 7.76821 11.9915 7.71797 11.7554 7.62026C11.5193 7.52256 11.3048 7.37932 11.1241 7.19871C10.9433 7.0181 10.7999 6.80366 10.7021 6.56764C10.6042 6.33162 10.5538 6.07863 10.5537 5.82313C10.5536 5.30712 10.7584 4.81217 11.1232 4.44718C11.4879 4.08219 11.9827 3.87704 12.4987 3.87688C13.0148 3.87671 13.5097 4.08154 13.8747 4.4463C14.2397 4.81105 14.4448 5.30586 14.445 5.82188Z" fill="white"/>
<path d="M12.5 14.4444C13.5742 14.4444 14.445 13.5736 14.445 12.4994C14.445 11.4252 13.5742 10.5544 12.5 10.5544C11.4258 10.5544 10.555 11.4252 10.555 12.4994C10.555 13.5736 11.4258 14.4444 12.5 14.4444Z" fill="white"/>
<path d="M12.5 21.1231C13.5742 21.1231 14.445 20.2523 14.445 19.1781C14.445 18.1039 13.5742 17.2331 12.5 17.2331C11.4258 17.2331 10.555 18.1039 10.555 19.1781C10.555 20.2523 11.4258 21.1231 12.5 21.1231Z" fill="white"/>
</svg>
