<svg width="30" height="30" viewBox="0 0 30 30" fill="none" xmlns="http://www.w3.org/2000/svg">
<path fill-rule="evenodd" clip-rule="evenodd" d="M26.25 1.875H3.75C3.25272 1.875 2.77581 2.07254 2.42417 2.42417C2.07254 2.77581 1.875 3.25272 1.875 3.75V26.25C1.875 26.7473 2.07254 27.2242 2.42417 27.5758C2.77581 27.9275 3.25272 28.125 3.75 28.125H26.25C26.7473 28.125 27.2242 27.9275 27.5758 27.5758C27.9275 27.2242 28.125 26.7473 28.125 26.25V3.75C28.125 3.25272 27.9275 2.77581 27.5758 2.42417C27.2242 2.07254 26.7473 1.875 26.25 1.875ZM3.75 0C2.75544 0 1.80161 0.395088 1.09835 1.09835C0.395088 1.80161 0 2.75544 0 3.75L0 26.25C0 27.2446 0.395088 28.1984 1.09835 28.9016C1.80161 29.6049 2.75544 30 3.75 30H26.25C27.2446 30 28.1984 29.6049 28.9016 28.9016C29.6049 28.1984 30 27.2446 30 26.25V3.75C30 2.75544 29.6049 1.80161 28.9016 1.09835C28.1984 0.395088 27.2446 0 26.25 0L3.75 0Z" fill="#424242"/>
<path fill-rule="evenodd" clip-rule="evenodd" d="M11.25 21.5625C11.25 21.3139 11.3488 21.0754 11.5246 20.8996C11.7004 20.7238 11.9389 20.625 12.1875 20.625H17.8125C18.0611 20.625 18.2996 20.7238 18.4754 20.8996C18.6512 21.0754 18.75 21.3139 18.75 21.5625C18.75 21.8111 18.6512 22.0496 18.4754 22.2254C18.2996 22.4012 18.0611 22.5 17.8125 22.5H12.1875C11.9389 22.5 11.7004 22.4012 11.5246 22.2254C11.3488 22.0496 11.25 21.8111 11.25 21.5625ZM7.5 15.9375C7.5 15.6889 7.59877 15.4504 7.77459 15.2746C7.9504 15.0988 8.18886 15 8.4375 15H21.5625C21.8111 15 22.0496 15.0988 22.2254 15.2746C22.4012 15.4504 22.5 15.6889 22.5 15.9375C22.5 16.1861 22.4012 16.4246 22.2254 16.6004C22.0496 16.7762 21.8111 16.875 21.5625 16.875H8.4375C8.18886 16.875 7.9504 16.7762 7.77459 16.6004C7.59877 16.4246 7.5 16.1861 7.5 15.9375ZM3.75 10.3125C3.75 10.0639 3.84877 9.8254 4.02459 9.64959C4.2004 9.47377 4.43886 9.375 4.6875 9.375H25.3125C25.5611 9.375 25.7996 9.47377 25.9754 9.64959C26.1512 9.8254 26.25 10.0639 26.25 10.3125C26.25 10.5611 26.1512 10.7996 25.9754 10.9754C25.7996 11.1512 25.5611 11.25 25.3125 11.25H4.6875C4.43886 11.25 4.2004 11.1512 4.02459 10.9754C3.84877 10.7996 3.75 10.5611 3.75 10.3125Z" fill="#424242"/>
</svg>
