<svg width="30" height="30" viewBox="0 0 30 30" fill="none" xmlns="http://www.w3.org/2000/svg">
<path d="M1.66669 6.66666H3.33335V8.33332H1.66669V6.66666Z" fill="#424242"/>
<path d="M5.83333 8.33332H25.8333C26.0543 8.33332 26.2663 8.24553 26.4226 8.08925C26.5789 7.93297 26.6667 7.721 26.6667 7.49999C26.6667 7.27898 26.5789 7.06701 26.4226 6.91073C26.2663 6.75445 26.0543 6.66666 25.8333 6.66666H5.83333C5.61232 6.66666 5.40036 6.75445 5.24408 6.91073C5.0878 7.06701 5 7.27898 5 7.49999C5 7.721 5.0878 7.93297 5.24408 8.08925C5.40036 8.24553 5.61232 8.33332 5.83333 8.33332Z" fill="#424242"/>
<path d="M1.66669 11.6667H3.33335V13.3333H1.66669V11.6667Z" fill="#424242"/>
<path d="M25.8333 11.6667H5.83333C5.61232 11.6667 5.40036 11.7545 5.24408 11.9107C5.0878 12.067 5 12.279 5 12.5C5 12.721 5.0878 12.933 5.24408 13.0892C5.40036 13.2455 5.61232 13.3333 5.83333 13.3333H25.8333C26.0543 13.3333 26.2663 13.2455 26.4226 13.0892C26.5789 12.933 26.6667 12.721 26.6667 12.5C26.6667 12.279 26.5789 12.067 26.4226 11.9107C26.2663 11.7545 26.0543 11.6667 25.8333 11.6667Z" fill="#424242"/>
<path d="M1.66669 16.6667H3.33335V18.3333H1.66669V16.6667Z" fill="#424242"/>
<path d="M25.8333 16.6667H5.83333C5.61232 16.6667 5.40036 16.7545 5.24408 16.9107C5.0878 17.067 5 17.279 5 17.5C5 17.721 5.0878 17.933 5.24408 18.0892C5.40036 18.2455 5.61232 18.3333 5.83333 18.3333H25.8333C26.0543 18.3333 26.2663 18.2455 26.4226 18.0892C26.5789 17.933 26.6667 17.721 26.6667 17.5C26.6667 17.279 26.5789 17.067 26.4226 16.9107C26.2663 16.7545 26.0543 16.6667 25.8333 16.6667Z" fill="#424242"/>
<path d="M1.66669 21.6667H3.33335V23.3333H1.66669V21.6667Z" fill="#424242"/>
<path d="M25.8333 21.6667H5.83333C5.61232 21.6667 5.40036 21.7545 5.24408 21.9107C5.0878 22.067 5 22.279 5 22.5C5 22.721 5.0878 22.933 5.24408 23.0892C5.40036 23.2455 5.61232 23.3333 5.83333 23.3333H25.8333C26.0543 23.3333 26.2663 23.2455 26.4226 23.0892C26.5789 22.933 26.6667 22.721 26.6667 22.5C26.6667 22.279 26.5789 22.067 26.4226 21.9107C26.2663 21.7545 26.0543 21.6667 25.8333 21.6667Z" fill="#424242"/>
</svg>
