<svg width="20" height="20" viewBox="0 0 20 20" fill="none" xmlns="http://www.w3.org/2000/svg">
<path d="M9.99996 4.16669C6.78413 4.16669 4.16663 6.78419 4.16663 10C4.16663 13.2159 6.78413 15.8334 9.99996 15.8334C13.2158 15.8334 15.8333 13.2159 15.8333 10C15.8333 6.78419 13.2158 4.16669 9.99996 4.16669ZM9.99996 14.1667C7.70246 14.1667 5.83329 12.2975 5.83329 10C5.83329 7.70252 7.70246 5.83335 9.99996 5.83335C12.2975 5.83335 14.1666 7.70252 14.1666 10C14.1666 12.2975 12.2975 14.1667 9.99996 14.1667Z" fill="#424242"/>
<path d="M10 7.5C8.64417 7.5 7.5 8.64417 7.5 10C7.5 11.3558 8.64417 12.5 10 12.5C11.3558 12.5 12.5 11.3558 12.5 10C12.5 8.64417 11.3558 7.5 10 7.5Z" fill="#424242"/>
</svg>
