<svg width="20" height="20" viewBox="0 0 20 20" fill="none" xmlns="http://www.w3.org/2000/svg">
<path d="M16.6667 9.16667C16.4457 9.16667 16.2337 9.25446 16.0774 9.41074C15.9211 9.56702 15.8333 9.77899 15.8333 10V15C15.8333 15.221 15.7455 15.433 15.5893 15.5893C15.433 15.7455 15.221 15.8333 15 15.8333H5C4.77899 15.8333 4.56702 15.7455 4.41074 15.5893C4.25446 15.433 4.16667 15.221 4.16667 15V5C4.16667 4.77899 4.25446 4.56702 4.41074 4.41074C4.56702 4.25446 4.77899 4.16667 5 4.16667H10C10.221 4.16667 10.433 4.07887 10.5893 3.92259C10.7455 3.76631 10.8333 3.55435 10.8333 3.33333C10.8333 3.11232 10.7455 2.90036 10.5893 2.74408C10.433 2.5878 10.221 2.5 10 2.5H5C4.33696 2.5 3.70107 2.76339 3.23223 3.23223C2.76339 3.70107 2.5 4.33696 2.5 5V15C2.5 15.663 2.76339 16.2989 3.23223 16.7678C3.70107 17.2366 4.33696 17.5 5 17.5H15C15.663 17.5 16.2989 17.2366 16.7678 16.7678C17.2366 16.2989 17.5 15.663 17.5 15V10C17.5 9.77899 17.4122 9.56702 17.2559 9.41074C17.0996 9.25446 16.8877 9.16667 16.6667 9.16667Z" fill="#424242"/>
<path d="M13.3333 4.16667H14.65L9.40833 9.4C9.33023 9.47747 9.26823 9.56964 9.22592 9.67119C9.18362 9.77273 9.16183 9.88166 9.16183 9.99167C9.16183 10.1017 9.18362 10.2106 9.22592 10.3121C9.26823 10.4137 9.33023 10.5059 9.40833 10.5833C9.4858 10.6614 9.57797 10.7234 9.67952 10.7657C9.78107 10.808 9.88999 10.8298 10 10.8298C10.11 10.8298 10.2189 10.808 10.3205 10.7657C10.422 10.7234 10.5142 10.6614 10.5917 10.5833L15.8333 5.35V6.66667C15.8333 6.88768 15.9211 7.09964 16.0774 7.25592C16.2337 7.4122 16.4457 7.5 16.6667 7.5C16.8877 7.5 17.0996 7.4122 17.2559 7.25592C17.4122 7.09964 17.5 6.88768 17.5 6.66667V3.33333C17.5 3.11232 17.4122 2.90036 17.2559 2.74408C17.0996 2.5878 16.8877 2.5 16.6667 2.5H13.3333C13.1123 2.5 12.9004 2.5878 12.7441 2.74408C12.5878 2.90036 12.5 3.11232 12.5 3.33333C12.5 3.55435 12.5878 3.76631 12.7441 3.92259C12.9004 4.07887 13.1123 4.16667 13.3333 4.16667Z" fill="#424242"/>
</svg>
