<svg width="34" height="21" viewBox="0 0 34 21" fill="none" xmlns="http://www.w3.org/2000/svg">
<rect width="34" height="21" rx="2" fill="#0B85A9"/>
<path d="M23.75 4.25H10.25C9.5 4.25 8.75 5 8.75 5.75V16.25C8.75 17.075 9.425 17.75 10.25 17.75H23.75C24.5 17.75 25.25 17 25.25 16.25V5.75C25.25 5 24.5 4.25 23.75 4.25ZM23.75 16.19C23.735 16.2125 23.705 16.235 23.69 16.25H10.25V5.81L10.31 5.75H23.6825C23.705 5.765 23.7275 5.795 23.7425 5.81V16.19H23.75ZM16.25 13.6325L14.375 11.375L11.75 14.75H22.25L18.875 10.25L16.25 13.6325Z" fill="#F5F5F5"/>
</svg>
