<svg width="45" height="45" viewBox="0 0 45 45" fill="none" xmlns="http://www.w3.org/2000/svg">
<circle cx="22.5" cy="22.5" r="22.5" fill="#209BBF"/>
<path fill-rule="evenodd" clip-rule="evenodd" d="M24.5833 12.0833C24.5833 11.5308 24.3638 11.0009 23.9731 10.6102C23.5824 10.2195 23.0525 10 22.5 10C21.9475 10 21.4176 10.2195 21.0269 10.6102C20.6362 11.0009 20.4167 11.5308 20.4167 12.0833V20.4167H12.0833C11.5308 20.4167 11.0009 20.6362 10.6102 21.0269C10.2195 21.4176 10 21.9475 10 22.5C10 23.0525 10.2195 23.5824 10.6102 23.9731C11.0009 24.3638 11.5308 24.5833 12.0833 24.5833H20.4167V32.9167C20.4167 33.4692 20.6362 33.9991 21.0269 34.3898C21.4176 34.7805 21.9475 35 22.5 35C23.0525 35 23.5824 34.7805 23.9731 34.3898C24.3638 33.9991 24.5833 33.4692 24.5833 32.9167V24.5833H32.9167C33.4692 24.5833 33.9991 24.3638 34.3898 23.9731C34.7805 23.5824 35 23.0525 35 22.5C35 21.9475 34.7805 21.4176 34.3898 21.0269C33.9991 20.6362 33.4692 20.4167 32.9167 20.4167H24.5833V12.0833Z" fill="white"/>
</svg>
