<svg width="18" height="18" viewBox="0 0 18 18" fill="none" xmlns="http://www.w3.org/2000/svg">
<path d="M2.39576 17.4375H0.562499V8.27343C0.560818 7.64741 0.705593 7.02968 0.985253 6.46959C1.36495 5.63169 1.97787 4.92083 2.75076 4.42194C3.52365 3.92305 4.42383 3.65723 5.34375 3.65625H10.1446V0.5625H11.6338L17.3892 6.31793L11.6134 12.0938H10.1446V9H7.02228C6.36919 9.00159 5.73442 9.21609 5.21423 9.61099C4.69404 10.0059 4.3168 10.5596 4.13972 11.1883L2.39576 17.4375ZM5.34375 4.78125C4.63862 4.782 3.9487 4.98621 3.35676 5.36937C2.76482 5.75253 2.29602 6.29836 2.00661 6.94136L1.99635 6.96294C1.79197 7.36948 1.68617 7.81841 1.6875 8.27343V15.7902L3.05613 10.8859C3.29976 10.0209 3.8188 9.25901 4.53454 8.71566C5.25028 8.17231 6.12367 7.87717 7.02228 7.875H11.2696V10.8466L15.7983 6.31793L11.2696 1.78924V4.78125H5.34375Z" fill="#424242"/>
</svg>
