<svg width="20" height="20" viewBox="0 0 20 20" fill="none" xmlns="http://www.w3.org/2000/svg">
<path d="M10.8333 11.25H2.49996C2.27895 11.25 2.06698 11.3378 1.9107 11.4941C1.75442 11.6503 1.66663 11.8623 1.66663 12.0833C1.66663 12.3043 1.75442 12.5163 1.9107 12.6726C2.06698 12.8288 2.27895 12.9166 2.49996 12.9166H10.8333C11.0543 12.9166 11.2663 12.8288 11.4225 12.6726C11.5788 12.5163 11.6666 12.3043 11.6666 12.0833C11.6666 11.8623 11.5788 11.6503 11.4225 11.4941C11.2663 11.3378 11.0543 11.25 10.8333 11.25ZM17.5 7.08331H2.49996C2.27895 7.08331 2.06698 7.17111 1.9107 7.32739C1.75442 7.48367 1.66663 7.69563 1.66663 7.91665C1.66663 8.13766 1.75442 8.34962 1.9107 8.5059C2.06698 8.66218 2.27895 8.74998 2.49996 8.74998H17.5C17.721 8.74998 17.9329 8.66218 18.0892 8.5059C18.2455 8.34962 18.3333 8.13766 18.3333 7.91665C18.3333 7.69563 18.2455 7.48367 18.0892 7.32739C17.9329 7.17111 17.721 7.08331 17.5 7.08331Z" fill="#212121"/>
</svg>
