<svg width="18" height="18" viewBox="0 0 18 18" fill="none" xmlns="http://www.w3.org/2000/svg">
<path d="M9.11069 8.06836C9.09754 8.05155 9.08073 8.03796 9.06154 8.02861C9.04236 8.01926 9.02129 8.0144 8.99995 8.0144C8.97861 8.0144 8.95754 8.01926 8.93836 8.02861C8.91917 8.03796 8.90236 8.05155 8.88921 8.06836L6.92046 10.5592C6.90423 10.5799 6.89416 10.6048 6.8914 10.631C6.88864 10.6571 6.8933 10.6836 6.90485 10.7072C6.91641 10.7309 6.93438 10.7508 6.95672 10.7647C6.97907 10.7786 7.00488 10.786 7.0312 10.7859H8.33022V15.0469C8.33022 15.1242 8.39351 15.1875 8.47085 15.1875H9.52554C9.60288 15.1875 9.66616 15.1242 9.66616 15.0469V10.7877H10.9687C11.0865 10.7877 11.1515 10.6523 11.0794 10.5609L9.11069 8.06836Z" fill="#424242"/>
<path d="M14.2629 6.4459C13.4578 4.32246 11.4064 2.8125 9.00352 2.8125C6.60059 2.8125 4.54922 4.3207 3.74414 6.44414C2.2377 6.83965 1.125 8.2125 1.125 9.84375C1.125 11.7861 2.69824 13.3594 4.63887 13.3594H5.34375C5.42109 13.3594 5.48438 13.2961 5.48438 13.2188V12.1641C5.48438 12.0867 5.42109 12.0234 5.34375 12.0234H4.63887C4.04648 12.0234 3.48926 11.7879 3.07441 11.3607C2.66133 10.9354 2.4416 10.3623 2.46094 9.76816C2.47676 9.3041 2.63496 8.86816 2.92148 8.50078C3.21504 8.12637 3.62637 7.85391 4.0834 7.73262L4.74961 7.55859L4.99395 6.91523C5.14512 6.51445 5.35605 6.14004 5.62148 5.80078C5.88352 5.46453 6.19392 5.16894 6.54258 4.92363C7.26504 4.41563 8.11582 4.14668 9.00352 4.14668C9.89121 4.14668 10.742 4.41563 11.4645 4.92363C11.8143 5.16973 12.1236 5.46504 12.3855 5.80078C12.651 6.14004 12.8619 6.51621 13.0131 6.91523L13.2557 7.55684L13.9201 7.73262C14.8729 7.98926 15.5391 8.85586 15.5391 9.84375C15.5391 10.4256 15.3123 10.974 14.901 11.3854C14.6993 11.5883 14.4593 11.7491 14.195 11.8587C13.9307 11.9682 13.6472 12.0242 13.3611 12.0234H12.6562C12.5789 12.0234 12.5156 12.0867 12.5156 12.1641V13.2188C12.5156 13.2961 12.5789 13.3594 12.6562 13.3594H13.3611C15.3018 13.3594 16.875 11.7861 16.875 9.84375C16.875 8.21426 15.7658 6.84316 14.2629 6.4459Z" fill="#424242"/>
</svg>
