<svg width="34" height="21" viewBox="0 0 34 21" fill="none" xmlns="http://www.w3.org/2000/svg">
<rect width="34" height="21" rx="2" fill="#0B85A9"/>
<path d="M16.4688 14.7266H14.4297V12.6875C14.4297 12.6102 14.3664 12.5469 14.2891 12.5469H13.4453C13.368 12.5469 13.3047 12.6102 13.3047 12.6875V14.7266H11.2656C11.1883 14.7266 11.125 14.7898 11.125 14.8672V15.7109C11.125 15.7883 11.1883 15.8516 11.2656 15.8516H13.3047V17.8906C13.3047 17.968 13.368 18.0312 13.4453 18.0312H14.2891C14.3664 18.0312 14.4297 17.968 14.4297 17.8906V15.8516H16.4688C16.5461 15.8516 16.6094 15.7883 16.6094 15.7109V14.8672C16.6094 14.7898 16.5461 14.7266 16.4688 14.7266Z" fill="white"/>
<path d="M26.0312 7.31387L23.7812 8.60938V5.9375C23.7812 5.31699 23.2768 4.8125 22.6562 4.8125H12.25C11.6295 4.8125 11.125 5.31699 11.125 5.9375V12.125H12.3906V6.07812H22.5156V15.9219H17.875V17.1875H22.6562C23.2768 17.1875 23.7812 16.683 23.7812 16.0625V13.3906L26.0312 14.6861C26.4057 14.9023 26.875 14.6316 26.875 14.201V7.80078C26.875 7.36836 26.4057 7.09766 26.0312 7.31387ZM25.6094 12.9863L23.7812 11.9352V10.0666L25.6094 9.01367V12.9863Z" fill="white"/>
<path d="M15.625 8.32812C15.7023 8.32812 15.7656 8.26484 15.7656 8.1875V7.34375C15.7656 7.26641 15.7023 7.20312 15.625 7.20312H13.6562C13.5789 7.20312 13.5156 7.26641 13.5156 7.34375V8.1875C13.5156 8.26484 13.5789 8.32812 13.6562 8.32812H15.625Z" fill="white"/>
</svg>
