<svg width="157" height="157" viewBox="0 0 157 157" fill="none" xmlns="http://www.w3.org/2000/svg">
<path d="M130.827 26.1667H26.1602C18.9448 26.1667 13.0769 32.0346 13.0769 39.25V117.75C13.0769 124.965 18.9448 130.833 26.1602 130.833H130.827C138.042 130.833 143.91 124.965 143.91 117.75V39.25C143.91 32.0346 138.042 26.1667 130.827 26.1667ZM42.5144 45.7917C45.1168 45.7917 47.6127 46.8255 49.4529 48.6657C51.2931 50.5059 52.3269 53.0017 52.3269 55.6042C52.3269 58.2066 51.2931 60.7025 49.4529 62.5427C47.6127 64.3829 45.1168 65.4167 42.5144 65.4167C39.912 65.4167 37.4161 64.3829 35.5759 62.5427C33.7357 60.7025 32.7019 58.2066 32.7019 55.6042C32.7019 53.0017 33.7357 50.5059 35.5759 48.6657C37.4161 46.8255 39.912 45.7917 42.5144 45.7917ZM78.4936 111.208H32.7019L58.8686 78.5L68.6811 91.5833L88.3061 65.4167L124.285 111.208H78.4936Z" fill="#EEEEEE"/>
</svg>
